<?xml version="1.0" standalone="no"?>
<!DOCTYPE svg PUBLIC "-//W3C//DTD SVG 1.1//EN" "http://www.w3.org/Graphics/SVG/1.1/DTD/svg11.dtd">
<svg xmlns="http://www.w3.org/2000/svg">
<metadata>Generated by Fontastic.me</metadata>
<defs>
<font id="untitled-font-1" horiz-adv-x="512">
<font-face font-family="untitled-font-1" units-per-em="512" ascent="480" descent="-32"/>
<missing-glyph horiz-adv-x="512" />

<glyph unicode="&#57344;" d="M332 94c-27 0-48 12-48 13-3 1-4 5-2 8 2 3 6 4 9 2 2-1 51-29 92 12 41 41 13 90 12 92-2 3-1 7 2 9 3 2 7 1 8-2 1-1 35-60-13-108-20-20-42-26-60-26z m68 187c-1 0-2 0-3 1-3 2-4 6-2 9 1 2 29 51-12 92-41 41-90 13-92 12-3-2-7-1-9 2-2 3-1 7 2 8 1 1 60 35 108-13 48-48 14-107 13-108-1-2-3-3-5-3z m-288 0c-2 0-4 1-5 3-1 1-35 60 13 108 48 48 107 14 108 13 3-1 4-5 2-8-2-3-6-4-9-2-2 1-51 29-92-12-41-41-13-90-12-92 2-3 1-7-2-9-1-1-2-1-3-1z m68-187c-18 0-40 6-60 26-48 48-14 107-13 108 1 3 5 4 8 2 3-2 4-6 2-9-1-2-29-51 12-92 41-41 90-13 92-12 3 2 7 1 9-2 2-3 1-7-2-8 0-1-21-13-48-13z m76 297c75 0 135-60 135-135 0-75-60-135-135-135-75 0-135 60-135 135 0 75 60 135 135 135m0-223c49 0 88 39 88 88 0 49-39 88-88 88-49 0-88-39-88-88 0-49 39-88 88-88m0 247c-88 0-159-71-159-159 0-88 71-159 159-159 88 0 159 71 159 159 0 88-71 159-159 159z m0-224c-36 0-65 29-65 65 0 36 29 65 65 65 36 0 65-29 65-65 0-36-29-65-65-65z m64 89l77 0c1-8 2-16 2-24 0-8-1-16-2-24l-77 0c2 8 3 16 3 24 0 8-1 16-3 24z m-134-24c0 8 1 16 4 24l-75 0c-1-8-2-16-2-24 0-8 1-16 2-24l75 0c-3 8-4 16-4 24z m70-71c-8 0-16 1-24 3l0-73c8-1 16-2 24-2 8 0 16 1 24 2l0 73c-8-2-16-3-24-3z m0 142c8 0 16-1 24-3l0 73c-8 1-16 2-24 2-8 0-16-1-24-2l0-73c8 2 16 3 24 3z"/>
<glyph unicode="&#57345;" d="M259 335c68 0 124-56 124-124 0-68-56-124-124-124-68 0-123 56-123 124 0 68 55 124 123 124m0 38c-89 0-162-73-162-162 0-90 73-162 162-162 90 0 162 72 162 162 0 89-72 162-162 162z m0-132c-16 0-30-14-30-30 0-17 14-30 30-30 17 0 30 13 30 30 0 16-13 30-30 30z m0-41c-8 0-14 7-14 14l5 91c0 4 3 10 10 10 6 0 9-6 9-10l4-91c1-7-6-14-14-14z m66 226c0-9-7-17-16-17l-99 0c-10 0-17 8-17 17l0 33c0 9 7 16 17 16l99 0c9 0 16-7 16-16l0-33z m-33-17c0-9-7-16-16-16l-33 0c-10 0-17 7-17 16l0 33c0 9 7 17 17 17l33 0c9 0 16-8 16-17z m108-81l-40 40 25 26 40-41z"/>
<glyph unicode="&#57346;" d="M256 338c45 0 82-37 82-82 0-45-37-82-82-82-45 0-82 37-82 82 0 45 37 82 82 82m0 33c-63 0-115-52-115-115 0-63 52-115 115-115 63 0 115 52 115 115 0 63-52 115-115 115z m0 16c-9 0-16 8-16 17l0 49c0 9 7 16 16 16 9 0 16-7 16-16l0-49c0-9-7-17-16-17z m0-344c-9 0-16 7-16 16l0 49c0 9 7 17 16 17 9 0 16-8 16-17l0-49c0-9-7-16-16-16z m197 197l-49 0c-9 0-17 7-17 16 0 9 8 16 17 16l49 0c9 0 16-7 16-16 0-9-7-16-16-16z m-345 0l-49 0c-9 0-16 7-16 16 0 9 7 16 16 16l49 0c9 0 17-7 17-16 0-9-8-16-17-16z m20 73c-3 0-5 1-8 3l-43 24c-8 5-10 15-6 23 5 7 15 10 23 6l42-25c8-5 11-15 6-22-3-6-8-9-14-9z m298-172c-2 0-5 1-8 2l-42 25c-8 4-11 15-6 22 4 8 14 11 22 6l43-24c8-5 10-15 6-23-3-5-9-8-15-8z m-96 227c-3 0-6 0-8 2-8 4-11 14-6 22l24 43c5 8 15 10 23 6 7-5 10-15 6-23l-25-42c-3-6-8-8-14-8z m-172-299c-3 0-6 1-9 2-8 5-10 15-6 23l25 42c4 8 14 11 22 6 8-4 11-14 6-22l-24-43c-3-5-9-8-14-8z m-72 72c-6 0-12 3-15 8-4 8-1 18 6 23l43 24c8 5 18 2 22-6 5-8 2-18-6-22l-42-25c-3-1-6-2-8-2z m298 172c-6 0-11 3-14 9-5 7-2 18 6 22l42 25c8 4 18 1 23-6 4-8 2-18-6-23l-43-24c-3-2-5-3-8-3z m-202 55c-5 0-11 3-14 8l-25 42c-4 8-1 18 6 23 8 4 18 2 23-6l24-43c5-8 2-18-6-22-2-2-5-2-8-2z m172-299c-5 0-11 3-14 8l-24 43c-5 8-2 18 6 22 7 5 18 2 22-6l25-42c4-8 1-18-6-23-3-1-6-2-9-2z"/>
<glyph unicode="&#57347;" d="M175 304l-132 132 165 33z m165 145l0-50c50-29 84-83 84-145 0-92-74-166-166-166-92 0-167 74-167 166 0 47 20 90 51 120l0 58c-58-38-96-103-96-178 0-117 95-211 212-211 117 0 211 94 211 211 0 88-53 163-129 195z"/>
<glyph unicode="&#57348;" d="M144 305l3-3 59 59-3 3-1 79-26 26-135-134 26-26z m116 2l-47 47-59-59 46-48z m61-78l48 47-27 27-73-1-64-64 2-69 27-27 48 47 187-146 2 1z"/>
<glyph unicode="&#57349;" d="M125 172c-55 1-110 10-110 42 0 7 0 3 0 9 0 26 43 51 81 65 2 0 13 5 6 28l0 0c-18 19-32 50-32 81 0 48 30 72 65 72 31 0 59-20 63-60-32-19-52-55-52-100 0-37 14-77 38-106-17-7-39-17-59-31z m291 116c-2 0-13 5-6 27l0 0c18 20 32 51 32 82 0 47-30 72-65 72-31 0-59-21-63-60 32-19 52-55 52-100 0-37-14-77-38-107 18-6 40-16 60-30 54 1 109 10 109 42 0 7 0 3 0 9 0 26-43 51-81 65z m-112-109c-2 1-16 7-7 33l0 0c22 23 39 60 39 97 0 56-37 85-80 85-43 0-79-29-79-85 0-37 16-74 39-97 8-23-7-32-11-33-44-16-97-46-97-76 0-8 0-3 0-11 0-40 77-49 148-49 72 0 148 9 148 49 0 8 0 3 0 11 0 31-53 60-100 76z"/>
<glyph unicode="&#57350;" d="M315 208c-3 1-19 9-9 40l0 0c27 28 48 73 48 118 0 68-45 103-98 103-53 0-98-35-98-103 0-45 21-90 48-118 11-28-8-38-12-40-55-20-120-56-120-92 0-10 0-4 0-13 0-49 95-60 183-60 87 0 181 11 181 60 0 9 0 3 0 13 0 37-65 73-123 92z"/>
<glyph unicode="&#57351;" d="M451 159c-2 0-29 2-29 31l0-2c-17 189-112 237-165 237-54 0-151-49-167-235 0 0-6-31-29-31-1-1-10-3-10-13 0-8 0-26 0-26 0 0 124 13 205 13 81 0 205-13 205-13 0 0 0 17 0 26 0 9-6 12-10 13z m-166 281c0-16-13-29-29-29-16 0-29 13-29 29 0 16 13 29 29 29 16 0 29-13 29-29z m-29-397c32 0 59 26 59 58 0 0-17 7-59 7-41 0-58-7-58-7 0-32 26-58 58-58z"/>
<glyph unicode="&#57352;" d="M338 223l-164 0c-18 0-33 15-33 33 0 18 15 33 33 33l164 0c18 0 33-15 33-33 0-18-15-33-33-33z m0-90l-164 0c-18 0-33 15-33 33 0 18 15 33 33 33l164 0c18 0 33-15 33-33 0-18-15-33-33-33z m0 180l-164 0c-18 0-33 15-33 33 0 18 15 33 33 33l164 0c18 0 33-15 33-33 0-18-15-33-33-33z m82-190c0-17-14-31-31-31l-266 0c-17 0-31 14-31 31l0 266c0 17 14 31 31 31l266 0c17 0 31-14 31-31l0-266m49 0l0 266c0 44-36 80-80 80l-266 0c-44 0-80-36-80-80l0-266c0-45 36-80 80-80l266 0c44 0 80 36 80 80z"/>
<glyph unicode="&#57353;" d="M479 308c-2 7-8 11-15 12l-132 20-60 120c-6 12-26 12-32 0l-60-120-132-20c-7-1-13-5-15-12-2-6 0-14 5-18l96-94-23-132c-1-7 2-14 7-18 6-4 13-4 19-1l119 62 119-62c2-2 5-2 8-2 4 0 8 1 11 3 5 4 8 11 7 18l-23 132 96 94c5 4 7 12 5 18z"/>
<glyph unicode="&#57354;" d="M383 43c-3 0-6 0-8 2l-119 62-119-62c-6-4-13-3-19 1-5 4-8 11-7 18l23 132-96 94c-5 4-7 12-5 18 2 7 8 11 15 12l132 20 60 120c6 12 26 12 32 0l60-120 132-20c7-1 13-5 15-12 2-6 0-14-5-18l-96-94 22-129c1-2 2-4 2-6 0-10-9-18-19-18 0 0 0 0 0 0z m-127 103c3 0 6-1 8-2l95-50-18 105c-1 6 1 12 5 16l77 75-106 15c-6 1-11 5-14 10l-47 96-47-96c-3-5-8-9-14-10l-106-15 77-75c4-4 6-10 5-16l-18-105 95 50c2 1 5 2 8 2z"/>
<glyph unicode="&#57355;" d="M485 115l-187 325c-23 39-61 39-84 0l-187-325c-23-40-4-72 41-72l375 0c46 0 65 32 42 72z m-255 232c7 8 16 11 26 11 10 0 19-3 26-10 7-8 10-17 10-27 0-10-14-78-19-128l-34 0c-4 50-19 118-19 128 0 10 4 19 10 26z m51-236c-7-7-15-11-25-11-10 0-18 4-25 11-7 7-11 15-11 25 0 9 4 18 11 25 7 7 15 11 25 11 10 0 18-4 25-11 7-7 11-16 11-25 0-10-4-18-11-25z"/>
<glyph unicode="&#57356;" d="M364 469c-47 0-86-33-108-56-22 23-61 56-108 56-80 0-136-56-136-135 0-88 70-146 137-200 31-27 64-53 89-83 4-5 11-8 17-8l2 0c6 0 12 2 17 8 25 29 58 57 89 82 68 55 137 112 137 200 0 80-56 136-136 136z"/>
<glyph unicode="&#57357;" d="M256 469c-118 0-213-95-213-213 0-118 95-213 213-213 118 0 213 95 213 213 0 118-95 213-213 213z m130-158l-94-74 0-95-36-19-35 19 0 95-95 74 0 27 260 0z"/>
<glyph unicode="&#57358;" d="M389 336l-120 0 0 13c0 6-4 10-9 10-5 0-10-4-10-10l0-13-120 0c-22 0-38-16-38-38l0-169c0-22 16-39 38-39l120 0 0-7-72-36c-5-2-7-8-4-13 1-3 5-5 8-5 2 0 3 0 4 1l64 32 0-11c0-5 5-9 10-9 5 0 9 4 9 9l0 11 64-32c2-1 3-1 5-1 3 0 6 2 8 5 2 5 1 11-4 13l-73 36 0 7 120 0c22 0 39 17 39 39l0 168c0 22-17 39-39 39z m13-207l-285 0 0 168 285 0z m-239 58l29 29 20-52c2-3 5-5 8-5 1 0 1 0 1 0 3 0 7 1 8 4l46 80 30-30c4-4 10-4 13 0l52 52c4 4 4 10 0 13-3 4-10 4-13 0l-45-45-33 32c-2 3-5 4-7 3-3 0-6-2-7-5l-42-73-19 46c-1 3-4 6-7 6-3 1-6 0-9-2l-38-39c-4-4-4-10 0-14 3-4 9-4 13 0z"/>
<glyph unicode="&#57359;" d="M293 469c66-29 113-96 113-173 0-105-85-190-189-190-78 0-145 47-174 113 18-100 105-176 211-176 119 0 215 96 215 215 0 106-76 193-176 211z"/>
<glyph unicode="&#57360;" d="M420 404l-328 0c-27 0-49-22-49-50l0-196c0-28 22-50 49-50l328 0c27 0 49 22 49 50l0 196c0 28-22 50-49 50z m-91-146l105-108-128 92-50-33-50 33-129-92 106 108-127 99 200-108 200 108z"/>
<glyph unicode="&#57361;" d="M116 104c-3 0-6 1-8 3-3 3-5 8-3 12l27 93c2 6 8 10 14 8 6-2 10-8 8-15l-21-72 72 21c7 2 13-2 15-8 2-6-2-12-8-14l-93-27c-1-1-2-1-3-1z m9 56l-10-35c-1-3 0-6 2-8 2-2 4-2 6-2 1 0 2 0 3 0l34 10z m39 28l19-5 3-17 130 130-22 22z m166 94l-131-131 17-17 132 131z m-48 49l-16 15-132-130 16-16z m78-53l-82 81 19 18 81-82z m28 32l-78 78 12 12c10 11 28 10 39 0l39-39c10-11 11-29 0-39z"/>
<glyph unicode="&#57362;" d="M237 210l112 112-19 18-111-111 16-4z m124 100l-111-111-45-14-9 10 13 47 110 110-13 13-112-111c-1-1-2-2-3-4l-23-80c-1-4 0-7 2-10 2-2 4-3 7-3 1 0 2 0 3 0l80 24c1 0 3 2 4 3l112 111z m-45 66l70-70 16 15-70 70z m105 1l-34 34c-9 9-24 9-33 0l-11-11 68-67 10 11c9 9 9 24 0 33z m-83-140l0-89c0-11-10-21-21-21l-179 0c-11 0-21 10-21 21l0 179c0 11 10 20 21 20l125 0 33 34-158 0c-30 0-54-24-54-54l0-179c0-30 24-54 54-54l179 0c30 0 53 24 53 54l0 122z"/>
<glyph unicode="&#57363;" d="M376 350c0-67-54-120-120-120-66 0-120 53-120 120 0 66 54 119 120 119 66 0 120-53 120-119z m-182-148l-2-4-30-155 92 67 96-67-38 155-1 3c-18-7-37-10-57-10-21 0-42 4-60 11z"/>
<glyph unicode="&#57364;" d="M261 308c-4 0-7-1-10-2-4-2-7-5-10-10-3-4-6-9-8-16-2-6-3-12-3-17 0-8 2-14 6-19 6-7 13-7 22-3 3 2 7 5 10 9 4 4 7 9 9 15 2 6 3 13 3 19 0 8-2 14-6 18-3 4-8 6-13 6z m-165 46c-18 3-27 33-11 33 15 0 28 0 28 0 10 0 19 6 19 17 0 10-9 16-19 16l-30 0c-11 0-32-6-32-33 0-27 21-33 45-33z m0-82c-18 3-27 33-11 33 15 0 28 0 28 0 10 0 19 6 19 16 0 11-9 17-19 17l-30 0c-11 0-32-6-32-33 0-27 21-33 45-33z m0-82c-18 3-27 33-11 33 15 0 28 0 28 0 10 0 19 5 19 16 0 11-9 17-19 17l-30 0c-11 0-32-6-32-33 0-27 21-33 45-33z m0-82c-18 3-27 33-11 33 15 0 28 0 28 0 10 0 19 5 19 16 0 11-9 17-19 17l-30 0c-11 0-32-6-32-33 0-27 21-33 45-33z m316 328l-3 0c-7 20-25 33-46 33l-197 0c-22 0-40-14-47-33 18-2 30-15 30-32 0-19-13-31-33-33l0-17c20-1 33-14 33-32 0-19-13-31-33-33l0-17c20-1 33-14 33-32 0-19-13-31-33-33l0-17c20-1 33-14 33-32 0-18-13-31-33-33l0-17c0-33 33-65 66-65l230 0c27 0 49 22 49 49l0 295c0 27-22 49-49 49z m-235-123c8 18 20 32 36 42 15 10 34 15 56 15 16 0 32-4 45-10 14-7 25-18 33-31 6-12 10-25 10-39 0-19-7-37-21-52-13-14-27-21-42-21-6 0-10 1-13 2-3 2-6 4-8 8 0 0 0 1-1 2-3-3-6-5-10-7-12-7-25-7-37 0-6 4-11 10-15 17-3 8-5 16-5 25 0 11 3 22 8 33 6 11 13 19 21 24 15 10 31 11 44 4 3-2 7-5 10-8l1 7c1 2 2 3 4 3l18 0c1 0 2 0 2-1 1-1 1-2 1-3l-14-66c-3-11-3-14-3-14 0-1 0-2 1-2 0-1 1-1 2-1 2 0 5 1 12 5 7 5 12 12 16 20 5 8 7 17 7 25 0 10-3 20-8 29-6 9-13 16-24 21-11 6-23 8-35 8-15 0-29-3-41-10-12-6-22-16-28-29-7-13-10-27-10-41 0-15 3-29 10-40 6-10 16-19 28-24 13-5 28-8 43-8 17 0 31 3 42 9 11 5 20 12 25 19 1 1 2 2 3 2l18 0c1 0 2-1 3-2 1-1 1-2 0-3-3-7-10-15-18-22-9-8-19-13-31-18-11-4-25-6-41-6-16 0-29 2-42 6-13 3-24 9-33 17-9 8-16 17-21 27-6 13-8 27-8 41 0 17 3 32 10 47z m251-221c0-10-7-17-16-17l-226 0c-12 0-19 10-20 17l197 0c27 0 49 22 49 49l0 263c9 0 16-8 16-17l0-295 0 0z"/>
<glyph unicode="&#57365;" d="M469 230l0 53-63 10c-4 15-10 30-18 43l37 52-37 38-52-37c-13 7-28 13-43 17l-11 63-53 0-10-63c-15-3-30-9-43-17l-52 37-37-38 36-52c-8-13-14-27-18-43l-62-10 0-53 62-11c4-15 10-30 18-43l-37-52 38-37 52 36c13-8 27-13 42-17l11-63 53 0 11 63c16 4 30 10 43 18l52-37 38 37-37 53c7 13 13 27 17 42z m-213-48c-41 0-74 33-74 74 0 41 33 74 74 74 41 0 74-33 74-74 0-41-33-74-74-74z"/>
<glyph unicode="&#57366;" d="M374 314l-33 33c-16 16-44 16-60 0l-137-137c-8-8-12-18-12-30 0-7 0-85 0-85l0 0c0-11 4-21 12-29l25-24c8-8 18-13 30-13 11 0 22 4 29 13l148 147c7 7 12 18 12 29l0 0 0 64c-3 12-6 24-14 32z m-208-116c8 8 60 61 60 61l0-75-70-70c0 20 0 55 0 60 0 8 2 16 10 24z m48-137c-4-3-9-5-14-5-6 0-11 2-15 5l-22 23 78 78 36-36z"/>
<glyph unicode="&#57367;" d="M456 113l-98 99c-4 3-8 6-12 8 15 25 24 55 24 86 0 90-73 163-164 163-90 0-163-73-163-163 0-91 73-164 163-164 32 0 61 9 86 24 2-4 5-8 8-12l98-98c16-15 38-18 49-6l15 15c12 11 9 33-6 48z m-383 193c0 73 60 133 133 133 74 0 134-60 134-133 0-74-60-134-134-134-73 0-133 60-133 134z"/>
<glyph unicode="&#57368;" d="M183 43c-9 0-17 5-20 13l-31 78-40 0c-42 0-77 34-77 76l0 183c0 42 34 76 77 76l328 0c43 0 77-34 77-76l0-183c0-42-34-76-77-76l-186 0-31-78c-3-8-11-13-20-13z"/>
<glyph unicode="&#57369;" d="M350 241c-17 0-33-7-45-18l-78 42c1 1 1 3 1 5 0 2 0 4-1 5l79 42c12-11 27-17 44-17 37 0 67 29 67 66 0 36-30 66-67 66-36 0-66-30-66-66 0-3 0-5 1-8l-77-41c-12 12-28 19-47 19-36 0-66-29-66-66 0-36 30-66 66-66 18 0 34 7 46 19l78-41c-1-3-1-5-1-7 0-37 30-66 66-66 37 0 67 29 67 66 0 36-30 66-67 66z"/>
<glyph unicode="&#57370;" d="M195 207l122 0 0-24-122 0z m0-36l85 0 0-24-85 0z m183 146l-13 0 0 61c0 20-16 36-36 36l-146 0c-20 0-37-16-37-36l0-61-12 0c-20 0-36-17-36-37l0-73c0-20 16-36 36-36l12 0 0-37c0-20 17-36 37-36l146 0c20 0 36 16 36 36l0 37 13 0c20 0 36 16 36 36l0 73c0 21-16 37-36 37z m-208 61c0 6 6 12 13 12l146 0c6 0 12-6 12-12l0-61-171 0z m171-244c0-6-5-12-12-12l-146 0c-7 0-13 6-13 12l0 98 171 0 0-98z m18 122c-10 0-18 8-18 18 0 10 8 18 18 18 10 0 19-8 19-18 0-10-9-18-19-18z"/>
<glyph unicode="&#57371;" d="M256 469c-118 0-213-95-213-213 0-118 95-213 213-213 118 0 213 95 213 213 0 118-95 213-213 213z m-1-343c-17 0-30 13-30 30 0 17 13 30 30 30 17 0 31-13 31-30-1-17-14-30-31-30z m45 138l-20-18c-15-13-12-19-12-27l-22 0 0 8c0 39 37 46 37 104 0 22-7 32-26 32-17 0-25-8-22-28 1-13-11-18-20-18-9 0-17 9-17 22 0 22 23 44 62 44 38 0 72-17 72-59 0-26-10-41-32-60z"/>
<glyph unicode="&#57372;" d="M256 469c-118 0-213-95-213-213 0-118 95-213 213-213 118 0 213 95 213 213 0 118-95 213-213 213z m116-252c-20 0-35 15-38 33l-40 0c-3-18-19-33-38-33-19 0-35 15-38 33l-40 0c-2-18-18-33-37-33-22 0-39 18-39 39 0 21 17 38 39 38 19 0 35-14 37-32l40 0c3 18 19 32 38 32 19 0 35-14 38-32l40 0c2 18 18 32 37 32 22 0 39-17 39-38 0-21-17-39-38-39z"/>
<glyph unicode="&#57373;" d="M416 203c-27 0-48 19-52 45l-55 0c-4-26-26-45-53-45-26 0-48 19-52 45l-56 0c-4-26-25-45-52-45-29 0-53 24-53 53 0 29 24 53 53 53 27 0 49-19 52-45l55 0c4 26 26 45 53 45 27 0 49-19 52-45l55 0c4 26 26 45 53 45 29 0 53-24 53-53 0-29-23-53-53-53z"/>
<glyph unicode="&#57374;" d="M340 342c15-14 15-39 0-54l-116-116c-15-15-39-15-54 0l-4 4c-15 15-15 39 0 54l116 116c15 15 39 15 54 0z m-101-173c-2-10-6-19-14-27l-24-25c-20-19-51-19-71 0l-15 16c-20 19-20 51 0 70l24 25c7 6 14 10 22 13l50 49c-26 12-58 8-79-14l-69-68c-27-27-27-71 0-98l47-47c27-27 71-27 98 0l68 69c23 23 27 58 11 84z m65 280l-68-69c-22-21-26-53-14-78l53 52c2 8 6 16 12 22l25 25c20 19 51 19 70 0l16-16c19-19 19-51 0-70l-25-25c-7-8-17-12-27-14l-50-51c26-16 61-12 84 11l69 68c27 27 27 71 0 98l-47 47c-27 27-71 27-98 0z"/>
<glyph unicode="&#57375;" d="M345 404l-105 65 0-131z m-178-296l105-65 0 131z m6 65c-21 21-35 50-35 83 0 65 53 118 118 118 1 0 2-1 4-1l2 27 8 33c-5 0-9 0-14 0-98 0-177-79-177-177 0-48 19-92 50-124z m210 207l-44-41c21-21 35-50 35-83 0-64-52-116-115-117l-1-22-13-38c4 0 7 0 11 0 98 0 177 79 177 177 0 48-19 92-50 124z"/>
<glyph unicode="&#57376;" d="M256 419c90 0 163-73 163-163 0-90-73-164-163-164-90 0-163 74-163 164 0 90 73 163 163 163m0 50c-118 0-213-95-213-213 0-118 95-213 213-213 118 0 213 95 213 213 0 118-95 213-213 213z m172-213c0-12-10-22-22-22-12 0-22 10-22 22 0 12 10 22 22 22 12 0 22-10 22-22z m-300 0c0-12-10-22-22-22-12 0-22 10-22 22 0 12 10 22 22 22 12 0 22-10 22-22z m128-172c-12 0-22 10-22 22 0 12 10 22 22 22 12 0 22-10 22-22 0-12-10-22-22-22z m0 300c-12 0-22 10-22 22 0 12 10 22 22 22 12 0 22-10 22-22 0-12-10-22-22-22z m-27-101l-61-115 115 61 61 115z m27-48c-12 0-21 9-21 21 0 11 9 21 21 21 12 0 21-10 21-21 0-12-9-21-21-21z"/>
<glyph unicode="&#57377;" d="M256 389c-19 0-35-15-35-34 0-19 16-35 35-35 19 0 35 16 35 35 0 19-16 34-35 34z m0-197c-19 0-35-16-35-35 0-19 16-34 35-34 19 0 35 15 35 34 0 19-16 35-35 35z m-94 158c-14-13-14-35 0-49 13-13 35-13 49 0 13 14 13 36 0 49-14 14-36 14-49 0z m139-139c-13-14-13-36 0-49 14-14 36-14 49 0 14 13 14 35 0 49-13 13-35 13-49 0z m-178 45c0-19 15-35 34-35 19 0 35 16 35 35 0 19-16 35-35 35-19 0-34-16-34-35z m197 0c0-19 16-35 35-35 19 0 34 16 34 35 0 19-15 35-34 35-19 0-35-16-35-35z m-158-94c13-14 35-14 49 0 13 13 13 35 0 49-14 13-36 13-49 0-14-14-14-36 0-49z m139 139c14-13 36-13 49 0 14 14 14 36 0 49-13 14-35 14-49 0-13-13-13-35 0-49z m-216-45c0 41 28 75 65 84-6 2-13 3-21 3-48 0-86-39-86-87 0-48 38-87 86-87 8 0 15 1 21 3-37 9-65 43-65 84z m342 0c0-41-28-75-65-84 6-2 13-3 21-3 48 0 86 39 86 87 0 48-38 87-86 87-8 0-15-1-21-3 37-9 65-43 65-84z m-171-171c-41 0-75 28-84 65-2-6-3-13-3-21 0-48 39-86 87-86 48 0 87 38 87 86 0 8-1 15-3 21-9-37-43-65-84-65z m0 342c41 0 75-28 84-65 2 6 3 13 3 21 0 48-39 86-87 86-48 0-87-38-87-86 0-8 1-15 3-21 9 37 43 65 84 65z m-121-292c-29 29-33 73-13 106-6-4-12-8-17-13-34-34-34-89 0-123 34-34 89-34 123 0 5 5 9 11 13 17-33-20-77-16-106 13z m242 242c29-29 33-73 13-106 6 4 12 8 17 13 34 34 34 89 0 123-34 34-89 34-123 0-5-5-9-11-13-17 33 20 77 16 106-13z m-242 0c29 29 73 33 106 13-4 6-8 12-13 17-34 34-89 34-123 0-34-34-34-89 0-123 5-5 11-9 17-13-20 33-16 77 13 106z m242-242c-29-29-73-33-106-13 4-6 8-12 13-17 34-34 89-34 123 0 34 34 34 89 0 123-5 5-11 9-17 13 20-33 16-77-13-106z"/>
</font>
</defs>
</svg>
